{
  "source": "C:\\Users\\Peter\\Desktop\\stuff\\MIUN\\quantitative_research\\video_compression\\videos\\HEVC_CLASS_B\\BQTerrace_1920x1080_60.y4m",
  "output": "C:\\Users\\Peter\\Desktop\\stuff\\MIUN\\quantitative_research\\video_compression\\compressed_videos\\HEVC_CLASS_B\\av1\\3\\BQTerrace_1920x1080_60_av1.mkv",
  "codec": "av1",
  "ok": "Input #0, yuv4mpegpipe, from 'C:\\Users\\Peter\\Desktop\\stuff\\MIUN\\quantitative_research\\video_compression\\videos\\HEVC_CLASS_B\\BQTerrace_1920x1080_60.y4m':\n  Duration: 00:00:10.00, start: 0.000000, bitrate: 1492994 kb/s\n  Stream #0:0: Video: rawvideo (I420 / 0x30323449), yuv420p(progressive), 1920x1080, 60 fps, 60 tbr, 60 tbn\n[out#0/matroska @ 00000266d7628ec0] Codec AVOption b:a (set bitrate (in bits/s)) has not been used for any stream. The most likely reason is either wrong type (e.g. a video option with no video streams) or that it is a private option of some decoder which was not actually used for any stream.\nStream mapping:\n  Stream #0:0 -> #0:0 (rawvideo (native) -> av1 (libsvtav1))\nPress [q] to stop, [?] for help\nSvt[info]: -------------------------------------------\nSvt[info]: SVT [version]:\tSVT-AV1 Encoder Lib v3.1.0-19-g6ecfe8ec\nSvt[info]: SVT [build]  :\tGCC 15.2.0\t 64 bit\nSvt[info]: LIB Build date: Aug 17 2025 11:37:13\nSvt[info]: -------------------------------------------\n[libsvtav1 @ 00000266d762c080] Specified chroma sample location center is unsupported on the AV1 bit stream level. Usage of a container that allows passing this information - such as Matroska - is recommended.\nSvt[info]: Level of Parallelism: 5\nSvt[info]: Number of PPCS 93\nSvt[info]: [asm level on system : up to avx2]\nSvt[info]: [asm level selected : up to avx2]\nSvt[info]: -------------------------------------------\nSvt[info]: SVT [config]: main profile\ttier (auto)\tlevel (auto)\nSvt[info]: SVT [config]: width / height / fps numerator / fps denominator \t\t: 1920 / 1080 / 60 / 1\nSvt[info]: SVT [config]: bit-depth / color format \t\t\t\t\t: 8 / YUV420\nSvt[info]: SVT [config]: preset / tune / pred struct \t\t\t\t\t: 4 / PSNR / random access\nSvt[info]: SVT [config]: gop size / mini-gop size / key-frame type \t\t\t: 321 / 16 / key frame\nSvt[info]: SVT [config]: BRC mode / target bitrate (kbps)\t\t\t\t: VBR / 3000 \nSvt[info]: SVT [config]: AQ mode / Variance Boost \t\t\t\t\t: 2 / 0\nSvt[info]: SVT [config]: sharpness / luminance-based QP bias \t\t\t\t: 0 / 0\nSvt[info]: SVT [config]: QP scale compress strength \t\t\t\t\t: 0\nSvt[info]: -------------------------------------------\nOutput #0, matroska, to 'C:\\Users\\Peter\\Desktop\\stuff\\MIUN\\quantitative_research\\video_compression\\compressed_videos\\HEVC_CLASS_B\\av1\\3\\BQTerrace_1920x1080_60_av1.mkv':\n  Metadata:\n    encoder         : Lavf62.3.100\n  Stream #0:0: Video: av1 (AV01 / 0x31305641), yuv420p(tv, progressive), 1920x1080, q=2-31, 3000 kb/s, 60 fps, 1k tbn\n    Metadata:\n      encoder         : Lavc62.11.100 libsvtav1\n    Side data:\n      cpb: bitrate max/min/avg: 0/0/3000000 buffer size: 3000000 vbv_delay: N/A\nframe=    0 fps=0.0 q=0.0 size=       0KiB time=N/A bitrate=N/A speed=N/A elapsed=0:00:02.61    \nframe=    0 fps=0.0 q=0.0 size=       0KiB time=N/A bitrate=N/A speed=N/A elapsed=0:00:03.15    \nframe=    0 fps=0.0 q=0.0 size=       0KiB time=N/A bitrate=N/A speed=N/A elapsed=0:00:03.69    \nframe=    0 fps=0.0 q=0.0 size=       0KiB time=N/A bitrate=N/A speed=N/A elapsed=0:00:04.21    \nframe=    0 fps=0.0 q=0.0 size=       0KiB time=N/A bitrate=N/A speed=N/A elapsed=0:00:04.76    \nframe=    0 fps=0.0 q=0.0 size=       0KiB time=N/A bitrate=N/A speed=N/A elapsed=0:00:05.36    \nframe=    0 fps=0.0 q=0.0 size=       0KiB time=N/A bitrate=N/A speed=N/A elapsed=0:00:05.93    \nframe=    0 fps=0.0 q=0.0 size=       0KiB time=N/A bitrate=N/A speed=N/A elapsed=0:00:06.45    \nframe=    0 fps=0.0 q=0.0 size=       0KiB time=N/A bitrate=N/A speed=N/A elapsed=0:00:06.97    \nframe=    0 fps=0.0 q=0.0 size=       0KiB time=N/A bitrate=N/A speed=N/A elapsed=0:00:07.50    \nframe=    0 fps=0.0 q=0.0 size=       0KiB time=N/A bitrate=N/A speed=N/A elapsed=0:00:08.06    \nframe=    0 fps=0.0 q=0.0 size=       0KiB time=N/A bitrate=N/A speed=N/A elapsed=0:00:08.62    \nframe=    0 fps=0.0 q=0.0 size=       0KiB time=N/A bitrate=N/A speed=N/A elapsed=0:00:09.16    \nframe=    0 fps=0.0 q=0.0 size=       0KiB time=N/A bitrate=N/A speed=N/A elapsed=0:00:09.77    \nframe=    0 fps=0.0 q=0.0 size=       0KiB time=N/A bitrate=N/A speed=N/A elapsed=0:00:10.28    \nframe=    0 fps=0.0 q=0.0 size=       0KiB time=N/A bitrate=N/A speed=N/A elapsed=0:00:10.86    \nframe=    0 fps=0.0 q=0.0 size=       0KiB time=N/A bitrate=N/A speed=N/A elapsed=0:00:11.36    \nframe=    0 fps=0.0 q=0.0 size=       0KiB time=N/A bitrate=N/A speed=N/A elapsed=0:00:11.88    \nframe=    0 fps=0.0 q=0.0 size=       0KiB time=N/A bitrate=N/A speed=N/A elapsed=0:00:12.40    \nframe=    0 fps=0.0 q=0.0 size=       0KiB time=N/A bitrate=N/A speed=N/A elapsed=0:00:12.93    \nframe=    0 fps=0.0 q=0.0 size=       0KiB time=N/A bitrate=N/A speed=N/A elapsed=0:00:13.46    \nframe=    0 fps=0.0 q=0.0 size=       0KiB time=N/A bitrate=N/A speed=N/A elapsed=0:00:14.03    \nframe=    1 fps=0.1 q=21.0 size=       1KiB time=00:00:00.00 bitrate=N/A speed=   0x elapsed=0:00:14.59    \nframe=    1 fps=0.1 q=21.0 size=       1KiB time=00:00:00.00 bitrate=N/A speed=   0x elapsed=0:00:15.14    \nframe=    1 fps=0.1 q=21.0 size=       1KiB time=00:00:00.00 bitrate=N/A speed=   0x elapsed=0:00:15.66    \nframe=    1 fps=0.1 q=21.0 size=       1KiB time=00:00:00.00 bitrate=N/A speed=   0x elapsed=0:00:16.19    \nframe=    1 fps=0.1 q=21.0 size=       1KiB time=00:00:00.00 bitrate=N/A speed=   0x elapsed=0:00:16.72    \nframe=    1 fps=0.1 q=21.0 size=       1KiB time=00:00:00.00 bitrate=N/A speed=   0x elapsed=0:00:17.25    \nframe=    1 fps=0.1 q=21.0 size=       1KiB time=00:00:00.00 bitrate=N/A speed=   0x elapsed=0:00:17.79    \nframe=    1 fps=0.1 q=21.0 size=       1KiB time=00:00:00.00 bitrate=N/A speed=   0x elapsed=0:00:18.30    \nframe=    1 fps=0.1 q=21.0 size=       1KiB time=00:00:00.00 bitrate=N/A speed=   0x elapsed=0:00:18.83    \nframe=    2 fps=0.1 q=51.0 size=       1KiB time=00:00:00.01 bitrate= 268.8kbits/s speed=0.000859x elapsed=0:00:19.41    \nframe=    3 fps=0.2 q=47.0 size=       1KiB time=00:00:00.03 bitrate= 134.4kbits/s speed=0.00167x elapsed=0:00:19.99    \nframe=    6 fps=0.3 q=47.0 size=       1KiB time=00:00:00.08 bitrate=  53.8kbits/s speed=0.00406x elapsed=0:00:20.55    \nframe=    6 fps=0.3 q=47.0 size=       1KiB time=00:00:00.08 bitrate=  53.8kbits/s speed=0.00394x elapsed=0:00:21.15    \nframe=    7 fps=0.3 q=47.0 size=       1KiB time=00:00:00.10 bitrate=  44.8kbits/s speed=0.00461x elapsed=0:00:21.69    \nframe=    8 fps=0.4 q=47.0 size=       1KiB time=00:00:00.11 bitrate=  38.4kbits/s speed=0.00525x elapsed=0:00:22.23    \nframe=    9 fps=0.4 q=43.0 size=       1KiB time=00:00:00.13 bitrate=  33.6kbits/s speed=0.00585x elapsed=0:00:22.77    \nframe=   11 fps=0.5 q=46.0 size=       1KiB time=00:00:00.16 bitrate=  26.9kbits/s speed=0.00715x elapsed=0:00:23.31    \nframe=   12 fps=0.5 q=46.0 size=       1KiB time=00:00:00.18 bitrate=  24.4kbits/s speed=0.00769x elapsed=0:00:23.84    \nframe=   13 fps=0.5 q=46.0 size=       1KiB time=00:00:00.20 bitrate=  22.4kbits/s speed=0.0082x elapsed=0:00:24.39    \nframe=   15 fps=0.6 q=43.0 size=       1KiB time=00:00:00.23 bitrate=  19.2kbits/s speed=0.00936x elapsed=0:00:24.91    \nframe=   15 fps=0.6 q=43.0 size=       1KiB time=00:00:00.23 bitrate=  19.2kbits/s speed=0.00915x elapsed=0:00:25.49    \nframe=   16 fps=0.6 q=43.0 size=       1KiB time=00:00:00.25 bitrate=  17.9kbits/s speed=0.0096x elapsed=0:00:26.03    \nframe=   17 fps=0.6 q=29.0 size=       1KiB time=00:00:00.26 bitrate=  16.8kbits/s speed=0.01x elapsed=0:00:26.56    \nframe=   19 fps=0.7 q=43.0 size=       1KiB time=00:00:00.28 bitrate=  15.8kbits/s speed=0.0104x elapsed=0:00:27.11    \nframe=   19 fps=0.7 q=43.0 size=       1KiB time=00:00:00.30 bitrate=  14.9kbits/s speed=0.0108x elapsed=0:00:27.67    \nframe=   20 fps=0.7 q=42.0 size=       1KiB time=00:00:00.31 bitrate=  14.1kbits/s speed=0.0112x elapsed=0:00:28.20    \nframe=   22 fps=0.8 q=41.0 size=       1KiB time=00:00:00.35 bitrate=  12.8kbits/s speed=0.0122x elapsed=0:00:28.77    \nframe=   22 fps=0.8 q=41.0 size=       1KiB time=00:00:00.35 bitrate=  12.8kbits/s speed=0.0119x elapsed=0:00:29.29    \nframe=   24 fps=0.8 q=40.0 size=       1KiB time=00:00:00.38 bitrate=  11.7kbits/s speed=0.0129x elapsed=0:00:29.80    \nframe=   24 fps=0.8 q=40.0 size=       1KiB time=00:00:00.38 bitrate=  11.7kbits/s speed=0.0126x elapsed=0:00:30.36    \nframe=   24 fps=0.8 q=40.0 size=       1KiB time=00:00:00.38 bitrate=  11.7kbits/s speed=0.0124x elapsed=0:00:30.91    \nframe=   26 fps=0.8 q=38.0 size=       1KiB time=00:00:00.41 bitrate=  10.8kbits/s speed=0.0132x elapsed=0:00:31.47    \nframe=   28 fps=0.9 q=38.0 size=       1KiB time=00:00:00.45 bitrate=  10.0kbits/s speed=0.0141x elapsed=0:00:32.01    \nframe=   29 fps=0.9 q=41.0 size=       1KiB time=00:00:00.46 bitrate=   9.6kbits/s speed=0.0143x elapsed=0:00:32.54    \nframe=   29 fps=0.9 q=41.0 size=       1KiB time=00:00:00.46 bitrate=   9.6kbits/s speed=0.0141x elapsed=0:00:33.05    \nframe=   31 fps=0.9 q=39.0 size=       1KiB time=00:00:00.50 bitrate=   9.0kbits/s speed=0.0149x elapsed=0:00:33.57    \nframe=   33 fps=1.0 q=30.0 size=       1KiB time=00:00:00.53 bitrate=   8.4kbits/s speed=0.0156x elapsed=0:00:34.08    \nframe=   34 fps=1.0 q=36.0 size=       1KiB time=00:00:00.55 bitrate=   8.1kbits/s speed=0.0159x elapsed=0:00:34.65    \nframe=   35 fps=1.0 q=40.0 size=       1KiB time=00:00:00.56 bitrate=   7.9kbits/s speed=0.0161x elapsed=0:00:35.17    \nframe=   36 fps=1.0 q=36.0 size=       1KiB time=00:00:00.58 bitrate=   7.7kbits/s speed=0.0163x elapsed=0:00:35.72    \nframe=   38 fps=1.0 q=36.0 size=       1KiB time=00:00:00.61 bitrate=   7.3kbits/s speed=0.017x elapsed=0:00:36.27    \nframe=   38 fps=1.0 q=36.0 size=       1KiB time=00:00:00.61 bitrate=   7.3kbits/s speed=0.0168x elapsed=0:00:36.78    \nframe=   39 fps=1.0 q=39.0 size=       1KiB time=00:00:00.63 bitrate=   7.1kbits/s speed=0.017x elapsed=0:00:37.31    \nframe=   41 fps=1.1 q=32.0 size=       1KiB time=00:00:00.65 bitrate=   6.9kbits/s speed=0.0172x elapsed=0:00:37.88    \nframe=   41 fps=1.1 q=32.0 size=       1KiB time=00:00:00.66 bitrate=   6.7kbits/s speed=0.0173x elapsed=0:00:38.45    \nframe=   42 fps=1.1 q=35.0 size=       1KiB time=00:00:00.68 bitrate=   6.6kbits/s speed=0.0175x elapsed=0:00:39.08    \nframe=   44 fps=1.1 q=36.0 size=       1KiB time=00:00:00.71 bitrate=   6.3kbits/s speed=0.0181x elapsed=0:00:39.68    \nframe=   45 fps=1.1 q=40.0 size=       1KiB time=00:00:00.73 bitrate=   6.1kbits/s speed=0.0182x elapsed=0:00:40.21    \nframe=   47 fps=1.2 q=39.0 size=       1KiB time=00:00:00.76 bitrate=   5.8kbits/s speed=0.0188x elapsed=0:00:40.76    \nframe=   48 fps=1.2 q=37.0 size=       1KiB time=00:00:00.78 bitrate=   5.7kbits/s speed=0.019x elapsed=0:00:41.32    \nframe=   49 fps=1.2 q=26.0 size=       1KiB time=00:00:00.80 bitrate=   5.6kbits/s speed=0.0191x elapsed=0:00:41.88    \nframe=   50 fps=1.2 q=38.0 size=       1KiB time=00:00:00.81 bitrate=   5.5kbits/s speed=0.0193x elapsed=0:00:42.42    \nframe=   51 fps=1.2 q=39.0 size=       1KiB time=00:00:00.83 bitrate=   5.4kbits/s speed=0.0194x elapsed=0:00:42.97    \nframe=   51 fps=1.2 q=39.0 size=       1KiB time=00:00:00.83 bitrate=   5.4kbits/s speed=0.0192x elapsed=0:00:43.49    \nframe=   53 fps=1.2 q=41.0 size=       1KiB time=00:00:00.86 bitrate=   5.2kbits/s speed=0.0197x elapsed=0:00:44.05    \nframe=   54 fps=1.2 q=37.0 size=       1KiB time=00:00:00.88 bitrate=   5.1kbits/s speed=0.0198x elapsed=0:00:44.61    \nframe=   55 fps=1.2 q=39.0 size=       1KiB time=00:00:00.90 bitrate=   5.0kbits/s speed=0.0199x elapsed=0:00:45.14    \nframe=   56 fps=1.2 q=37.0 size=       1KiB time=00:00:00.91 bitrate=   4.9kbits/s speed=0.0201x elapsed=0:00:45.71    \nframe=   58 fps=1.3 q=35.0 size=       1KiB time=00:00:00.95 bitrate=   4.7kbits/s speed=0.0205x elapsed=0:00:46.27    \nframe=   58 fps=1.2 q=35.0 size=       1KiB time=00:00:00.95 bitrate=   4.7kbits/s speed=0.0203x elapsed=0:00:46.82    \nframe=   59 fps=1.2 q=39.0 size=       1KiB time=00:00:00.96 bitrate=   4.6kbits/s speed=0.0204x elapsed=0:00:47.35    \nframe=   60 fps=1.3 q=34.0 size=       1KiB time=00:00:00.98 bitrate=   4.6kbits/s speed=0.0205x elapsed=0:00:47.86    \nframe=   62 fps=1.3 q=39.0 size=       1KiB time=00:00:01.01 bitrate=   4.4kbits/s speed=0.021x elapsed=0:00:48.43    \nframe=   63 fps=1.3 q=39.0 size=       1KiB time=00:00:01.03 bitrate=   4.3kbits/s speed=0.0211x elapsed=0:00:48.98    \nframe=   64 fps=1.3 q=36.0 size=       1KiB time=00:00:01.05 bitrate=   4.3kbits/s speed=0.0212x elapsed=0:00:49.57    \nframe=   65 fps=1.3 q=22.0 size=       1KiB time=00:00:01.06 bitrate=   4.2kbits/s speed=0.0213x elapsed=0:00:50.17    \nframe=   66 fps=1.3 q=36.0 size=       1KiB time=00:00:01.08 bitrate=   4.1kbits/s speed=0.0213x elapsed=0:00:50.79    \nframe=   67 fps=1.3 q=39.0 size=       1KiB time=00:00:01.10 bitrate=   4.1kbits/s speed=0.0214x elapsed=0:00:51.34    \nframe=   67 fps=1.3 q=39.0 size=       1KiB time=00:00:01.10 bitrate=   4.1kbits/s speed=0.0212x elapsed=0:00:51.88    \nframe=   68 fps=1.3 q=36.0 size=       1KiB time=00:00:01.11 bitrate=   4.0kbits/s speed=0.0213x elapsed=0:00:52.42    \nframe=   69 fps=1.3 q=41.0 size=       1KiB time=00:00:01.13 bitrate=   4.0kbits/s speed=0.0214x elapsed=0:00:52.97    \nframe=   70 fps=1.3 q=36.0 size=       1KiB time=00:00:01.15 bitrate=   3.9kbits/s speed=0.0215x elapsed=0:00:53.51    \nframe=   71 fps=1.3 q=38.0 size=       1KiB time=00:00:01.16 bitrate=   3.8kbits/s speed=0.0216x elapsed=0:00:54.03    \nframe=   72 fps=1.3 q=37.0 size=       1KiB time=00:00:01.18 bitrate=   3.8kbits/s speed=0.0217x elapsed=0:00:54.58    \nframe=   74 fps=1.3 q=37.0 size=       1KiB time=00:00:01.21 bitrate=   3.7kbits/s speed=0.0221x elapsed=0:00:55.10    \nframe=   74 fps=1.3 q=37.0 size=       1KiB time=00:00:01.21 bitrate=   3.7kbits/s speed=0.0219x elapsed=0:00:55.63    \nframe=   75 fps=1.3 q=39.0 size=       1KiB time=00:00:01.23 bitrate=   3.6kbits/s speed=0.022x elapsed=0:00:56.16    \nframe=   77 fps=1.4 q=41.0 size=       1KiB time=00:00:01.26 bitrate=   3.5kbits/s speed=0.0223x elapsed=0:00:56.69    \nframe=   79 fps=1.4 q=39.0 size=       1KiB time=00:00:01.28 bitrate=   3.5kbits/s speed=0.0224x elapsed=0:00:57.22    \nframe=   80 fps=1.4 q=35.0 size=       1KiB time=00:00:01.31 bitrate=   3.4kbits/s speed=0.0228x elapsed=0:00:57.77    \nframe=   81 fps=1.4 q=19.0 size=       1KiB time=00:00:01.33 bitrate=   3.4kbits/s speed=0.0229x elapsed=0:00:58.30    \nframe=   83 fps=1.4 q=38.0 size=       1KiB time=00:00:01.36 bitrate=   3.3kbits/s speed=0.0232x elapsed=0:00:58.85    \nframe=   83 fps=1.4 q=38.0 size=       1KiB time=00:00:01.36 bitrate=   3.3kbits/s speed=0.023x elapsed=0:00:59.37    \nframe=   84 fps=1.4 q=37.0 size=       1KiB time=00:00:01.36 bitrate=   3.3kbits/s speed=0.0228x elapsed=0:00:59.89    \nframe=   84 fps=1.4 q=37.0 size=       1KiB time=00:00:01.38 bitrate=   3.2kbits/s speed=0.0229x elapsed=0:01:00.46    \nframe=   86 fps=1.4 q=37.0 size=       1KiB time=00:00:01.41 bitrate=   3.2kbits/s speed=0.0232x elapsed=0:01:01.00    \nframe=   86 fps=1.4 q=37.0 size=       1KiB time=00:00:01.41 bitrate=   3.2kbits/s speed=0.023x elapsed=0:01:01.50    \nframe=   87 fps=1.4 q=38.0 size=       1KiB time=00:00:01.43 bitrate=   3.1kbits/s speed=0.0231x elapsed=0:01:02.02    \nframe=   87 fps=1.4 q=38.0 size=       1KiB time=00:00:01.43 bitrate=   3.1kbits/s speed=0.0229x elapsed=0:01:02.61    \nframe=   89 fps=1.4 q=32.0 size=       1KiB time=00:00:01.46 bitrate=   3.1kbits/s speed=0.0232x elapsed=0:01:03.12    \nframe=   90 fps=1.4 q=37.0 size=       1KiB time=00:00:01.48 bitrate=   3.0kbits/s speed=0.0233x elapsed=0:01:03.68    \nframe=   90 fps=1.4 q=37.0 size=       1KiB time=00:00:01.48 bitrate=   3.0kbits/s speed=0.0231x elapsed=0:01:04.21    \nframe=   91 fps=1.4 q=38.0 size=       1KiB time=00:00:01.50 bitrate=   3.0kbits/s speed=0.0232x elapsed=0:01:04.76    \nframe=   93 fps=1.4 q=39.0 size=       1KiB time=00:00:01.53 bitrate=   2.9kbits/s speed=0.0235x elapsed=0:01:05.33    \nframe=   94 fps=1.4 q=41.0 size=       1KiB time=00:00:01.55 bitrate=   2.9kbits/s speed=0.0235x elapsed=0:01:05.87    \nframe=   96 fps=1.4 q=38.0 size=       1KiB time=00:00:01.55 bitrate=   2.9kbits/s speed=0.0233x elapsed=0:01:06.47    \nframe=   96 fps=1.4 q=38.0 size=       1KiB time=00:00:01.58 bitrate=   2.8kbits/s speed=0.0236x elapsed=0:01:07.09    \nframe=   98 fps=1.4 q=40.0 size=       1KiB time=00:00:01.60 bitrate=   2.8kbits/s speed=0.0236x elapsed=0:01:07.68    \nframe=   99 fps=1.5 q=40.0 size=       1KiB time=00:00:01.61 bitrate=   2.8kbits/s speed=0.0237x elapsed=0:01:08.25    \nframe=   99 fps=1.4 q=40.0 size=       1KiB time=00:00:01.63 bitrate=   2.7kbits/s speed=0.0237x elapsed=0:01:08.83    \nframe=  100 fps=1.4 q=40.0 size=       1KiB time=00:00:01.65 bitrate=   2.7kbits/s speed=0.0238x elapsed=0:01:09.33    \nframe=  102 fps=1.5 q=40.0 size=       1KiB time=00:00:01.66 bitrate=   2.7kbits/s speed=0.0239x elapsed=0:01:09.86    \nframe=  103 fps=1.5 q=40.0 size=       1KiB time=00:00:01.70 bitrate=   2.6kbits/s speed=0.0241x elapsed=0:01:10.40    \nframe=  104 fps=1.5 q=40.0 size=       1KiB time=00:00:01.71 bitrate=   2.6kbits/s speed=0.0242x elapsed=0:01:10.91    \nframe=  104 fps=1.5 q=40.0 size=       1KiB time=00:00:01.71 bitrate=   2.6kbits/s speed=0.024x elapsed=0:01:11.42    \nframe=  104 fps=1.4 q=40.0 size=       1KiB time=00:00:01.71 bitrate=   2.6kbits/s speed=0.0239x elapsed=0:01:11.95    \nframe=  106 fps=1.5 q=40.0 size=       1KiB time=00:00:01.75 bitrate=   2.6kbits/s speed=0.0241x elapsed=0:01:12.48    \nframe=  108 fps=1.5 q=40.0 size=       1KiB time=00:00:01.76 bitrate=   2.5kbits/s speed=0.0242x elapsed=0:01:13.07    \nframe=  109 fps=1.5 q=40.0 size=       1KiB time=00:00:01.80 bitrate=   2.5kbits/s speed=0.0245x elapsed=0:01:13.61    \nframe=  110 fps=1.5 q=40.0 size=       1KiB time=00:00:01.81 bitrate=   2.5kbits/s speed=0.0245x elapsed=0:01:14.17    \nframe=  112 fps=1.5 q=40.0 size=       1KiB time=00:00:01.85 bitrate=   2.4kbits/s speed=0.0247x elapsed=0:01:14.78    \nframe=  112 fps=1.5 q=40.0 size=       1KiB time=00:00:01.85 bitrate=   2.4kbits/s speed=0.0246x elapsed=0:01:15.33    \nframe=  114 fps=1.5 q=40.0 size=       1KiB time=00:00:01.88 bitrate=   2.4kbits/s speed=0.0248x elapsed=0:01:15.86    \nframe=  115 fps=1.5 q=40.0 size=       1KiB time=00:00:01.90 bitrate=   2.4kbits/s speed=0.0249x elapsed=0:01:16.43    \nframe=  116 fps=1.5 q=40.0 size=       1KiB time=00:00:01.91 bitrate=   2.3kbits/s speed=0.0249x elapsed=0:01:16.96    \nframe=  117 fps=1.5 q=40.0 size=       1KiB time=00:00:01.93 bitrate=   2.3kbits/s speed=0.0249x elapsed=0:01:17.52    \nframe=  117 fps=1.5 q=40.0 size=       1KiB time=00:00:01.93 bitrate=   2.3kbits/s speed=0.0247x elapsed=0:01:18.13    \nframe=  118 fps=1.5 q=40.0 size=       1KiB time=00:00:01.95 bitrate=   2.3kbits/s speed=0.0248x elapsed=0:01:18.65    \nframe=  118 fps=1.5 q=40.0 size=       1KiB time=00:00:01.95 bitrate=   2.3kbits/s speed=0.0246x elapsed=0:01:19.16    \nframe=  119 fps=1.5 q=40.0 size=       1KiB time=00:00:01.96 bitrate=   2.3kbits/s speed=0.0247x elapsed=0:01:19.68    \nframe=  121 fps=1.5 q=33.0 size=       1KiB time=00:00:02.00 bitrate=   2.2kbits/s speed=0.0249x elapsed=0:01:20.20    \nframe=  122 fps=1.5 q=40.0 size=       1KiB time=00:00:02.01 bitrate=   2.2kbits/s speed=0.025x elapsed=0:01:20.71    \nframe=  123 fps=1.5 q=40.0 size=       1KiB time=00:00:02.03 bitrate=   2.2kbits/s speed=0.025x elapsed=0:01:21.23    \nframe=  123 fps=1.5 q=40.0 size=       1KiB time=00:00:02.03 bitrate=   2.2kbits/s speed=0.0249x elapsed=0:01:21.75    \nframe=  124 fps=1.5 q=40.0 size=       1KiB time=00:00:02.05 bitrate=   2.2kbits/s speed=0.0249x elapsed=0:01:22.26    \nframe=  126 fps=1.5 q=37.0 size=       1KiB time=00:00:02.08 bitrate=   2.2kbits/s speed=0.0252x elapsed=0:01:22.77    \nframe=  127 fps=1.5 q=35.0 size=       1KiB time=00:00:02.10 bitrate=   2.1kbits/s speed=0.0252x elapsed=0:01:23.30    \nframe=  129 fps=1.5 q=26.0 size=       1KiB time=00:00:02.13 bitrate=   2.1kbits/s speed=0.0255x elapsed=0:01:23.81    \nframe=  130 fps=1.5 q=40.0 size=       1KiB time=00:00:02.15 bitrate=   2.1kbits/s speed=0.0255x elapsed=0:01:24.32    \nframe=  131 fps=1.5 q=40.0 size=       1KiB time=00:00:02.16 bitrate=   2.1kbits/s speed=0.0255x elapsed=0:01:24.83    \nframe=  132 fps=1.5 q=40.0 size=       1KiB time=00:00:02.18 bitrate=   2.1kbits/s speed=0.0256x elapsed=0:01:25.35    \nframe=  134 fps=1.6 q=40.0 size=       1KiB time=00:00:02.21 bitrate=   2.0kbits/s speed=0.0258x elapsed=0:01:25.87    \nframe=  134 fps=1.6 q=40.0 size=       1KiB time=00:00:02.21 bitrate=   2.0kbits/s speed=0.0257x elapsed=0:01:26.38    \nframe=  135 fps=1.6 q=40.0 size=       1KiB time=00:00:02.23 bitrate=   2.0kbits/s speed=0.0257x elapsed=0:01:26.90    \nframe=  135 fps=1.5 q=40.0 size=       1KiB time=00:00:02.23 bitrate=   2.0kbits/s speed=0.0255x elapsed=0:01:27.41    \nframe=  136 fps=1.5 q=40.0 size=       1KiB time=00:00:02.25 bitrate=   2.0kbits/s speed=0.0256x elapsed=0:01:27.93    \nframe=  138 fps=1.6 q=40.0 size=       1KiB time=00:00:02.28 bitrate=   2.0kbits/s speed=0.0258x elapsed=0:01:28.45    \nframe=  139 fps=1.6 q=40.0 size=       1KiB time=00:00:02.30 bitrate=   1.9kbits/s speed=0.0258x elapsed=0:01:28.97    \nframe=  140 fps=1.6 q=40.0 size=       1KiB time=00:00:02.31 bitrate=   1.9kbits/s speed=0.0259x elapsed=0:01:29.48    \nframe=  143 fps=1.6 q=37.0 size=       1KiB time=00:00:02.36 bitrate=   1.9kbits/s speed=0.0263x elapsed=0:01:30.00    \nframe=  144 fps=1.6 q=35.0 size=       1KiB time=00:00:02.38 bitrate=   1.9kbits/s speed=0.0263x elapsed=0:01:30.51    \nframe=  144 fps=1.6 q=35.0 size=       1KiB time=00:00:02.38 bitrate=   1.9kbits/s speed=0.0262x elapsed=0:01:31.03    \nframe=  146 fps=1.6 q=39.0 size=       1KiB time=00:00:02.41 bitrate=   1.9kbits/s speed=0.0264x elapsed=0:01:31.54    \nframe=  147 fps=1.6 q=39.0 size=       1KiB time=00:00:02.43 bitrate=   1.8kbits/s speed=0.0264x elapsed=0:01:32.06    \nframe=  148 fps=1.6 q=39.0 size=       1KiB time=00:00:02.45 bitrate=   1.8kbits/s speed=0.0265x elapsed=0:01:32.57    \nframe=  148 fps=1.6 q=39.0 size=       1KiB time=00:00:02.45 bitrate=   1.8kbits/s speed=0.0263x elapsed=0:01:33.08    \nframe=  150 fps=1.6 q=39.0 size=       1KiB time=00:00:02.48 bitrate=   1.8kbits/s speed=0.0265x elapsed=0:01:33.60    \nframe=  150 fps=1.6 q=39.0 size=       1KiB time=00:00:02.48 bitrate=   1.8kbits/s speed=0.0264x elapsed=0:01:34.12    \nframe=  151 fps=1.6 q=39.0 size=       1KiB time=00:00:02.50 bitrate=   1.8kbits/s speed=0.0264x elapsed=0:01:34.64    \nframe=  152 fps=1.6 q=39.0 size=       1KiB time=00:00:02.51 bitrate=   1.8kbits/s speed=0.0264x elapsed=0:01:35.15    \nframe=  153 fps=1.6 q=32.0 size=       1KiB time=00:00:02.53 bitrate=   1.8kbits/s speed=0.0265x elapsed=0:01:35.66    \nframe=  154 fps=1.6 q=39.0 size=       1KiB time=00:00:02.55 bitrate=   1.8kbits/s speed=0.0265x elapsed=0:01:36.17    \nframe=  156 fps=1.6 q=39.0 size=       1KiB time=00:00:02.58 bitrate=   1.7kbits/s speed=0.0267x elapsed=0:01:36.69    \nframe=  156 fps=1.6 q=39.0 size=       1KiB time=00:00:02.58 bitrate=   1.7kbits/s speed=0.0266x elapsed=0:01:37.21    \nframe=  157 fps=1.6 q=39.0 size=       1KiB time=00:00:02.60 bitrate=   1.7kbits/s speed=0.0266x elapsed=0:01:37.73    \nframe=  158 fps=1.6 q=39.0 size=       1KiB time=00:00:02.61 bitrate=   1.7kbits/s speed=0.0266x elapsed=0:01:38.25    \nframe=  159 fps=1.6 q=39.0 size=       1KiB time=00:00:02.63 bitrate=   1.7kbits/s speed=0.0267x elapsed=0:01:38.76    \nframe=  159 fps=1.6 q=39.0 size=       1KiB time=00:00:02.63 bitrate=   1.7kbits/s speed=0.0265x elapsed=0:01:39.28    \nframe=  160 fps=1.6 q=39.0 size=       1KiB time=00:00:02.65 bitrate=   1.7kbits/s speed=0.0266x elapsed=0:01:39.79    \nframe=  162 fps=1.6 q=38.0 size=       1KiB time=00:00:02.66 bitrate=   1.7kbits/s speed=0.0266x elapsed=0:01:40.31    \nframe=  163 fps=1.6 q=38.0 size=       1KiB time=00:00:02.70 bitrate=   1.7kbits/s speed=0.0267x elapsed=0:01:41.15    \nframe=  165 fps=1.6 q=38.0 size=       1KiB time=00:00:02.71 bitrate=   1.6kbits/s speed=0.0266x elapsed=0:01:42.00    \nframe=  166 fps=1.6 q=38.0 size=       1KiB time=00:00:02.75 bitrate=   1.6kbits/s speed=0.0267x elapsed=0:01:42.86    \nframe=  167 fps=1.6 q=38.0 size=       1KiB time=00:00:02.76 bitrate=   1.6kbits/s speed=0.0267x elapsed=0:01:43.76    \nframe=  168 fps=1.6 q=38.0 size=       1KiB time=00:00:02.78 bitrate=   1.6kbits/s speed=0.0266x elapsed=0:01:44.69    \nframe=  169 fps=1.6 q=31.0 size=       1KiB time=00:00:02.80 bitrate=   1.6kbits/s speed=0.0266x elapsed=0:01:45.19    \nframe=  170 fps=1.6 q=38.0 size=       1KiB time=00:00:02.81 bitrate=   1.6kbits/s speed=0.0266x elapsed=0:01:45.71    \nframe=  170 fps=1.6 q=38.0 size=       1KiB time=00:00:02.81 bitrate=   1.6kbits/s speed=0.0265x elapsed=0:01:46.23    \nframe=  172 fps=1.6 q=38.0 size=       1KiB time=00:00:02.85 bitrate=   1.6kbits/s speed=0.0267x elapsed=0:01:46.83    \nframe=  173 fps=1.6 q=38.0 size=       1KiB time=00:00:02.86 bitrate=   1.6kbits/s speed=0.0267x elapsed=0:01:47.38    \nframe=  174 fps=1.6 q=36.0 size=       1KiB time=00:00:02.86 bitrate=   1.6kbits/s speed=0.0266x elapsed=0:01:47.94    \nframe=  176 fps=1.6 q=36.0 size=       1KiB time=00:00:02.91 bitrate=   1.5kbits/s speed=0.0269x elapsed=0:01:48.51    \nframe=  177 fps=1.6 q=24.0 size=       1KiB time=00:00:02.93 bitrate=   1.5kbits/s speed=0.0269x elapsed=0:01:49.06    \nframe=  178 fps=1.6 q=38.0 size=       1KiB time=00:00:02.95 bitrate=   1.5kbits/s speed=0.0269x elapsed=0:01:49.59    \nframe=  179 fps=1.6 q=38.0 size=       1KiB time=00:00:02.96 bitrate=   1.5kbits/s speed=0.0269x elapsed=0:01:50.11    \nframe=  179 fps=1.6 q=38.0 size=       1KiB time=00:00:02.96 bitrate=   1.5kbits/s speed=0.0268x elapsed=0:01:50.62    \nframe=  180 fps=1.6 q=38.0 size=       1KiB time=00:00:02.98 bitrate=   1.5kbits/s speed=0.0268x elapsed=0:01:51.14    \nframe=  182 fps=1.6 q=38.0 size=       1KiB time=00:00:03.01 bitrate=   1.5kbits/s speed=0.027x elapsed=0:01:51.66    \nframe=  183 fps=1.6 q=38.0 size=       1KiB time=00:00:03.03 bitrate=   1.5kbits/s speed=0.027x elapsed=0:01:52.17    \nframe=  183 fps=1.6 q=38.0 size=       1KiB time=00:00:03.03 bitrate=   1.5kbits/s speed=0.0269x elapsed=0:01:52.68    \nframe=  184 fps=1.6 q=30.0 size=       1KiB time=00:00:03.05 bitrate=   1.5kbits/s speed=0.0269x elapsed=0:01:53.20    \nframe=  184 fps=1.6 q=30.0 size=       1KiB time=00:00:03.05 bitrate=   1.5kbits/s speed=0.0268x elapsed=0:01:53.72    \nframe=  186 fps=1.6 q=38.0 size=       1KiB time=00:00:03.08 bitrate=   1.5kbits/s speed=0.027x elapsed=0:01:54.23    \nframe=  188 fps=1.6 q=38.0 size=       1KiB time=00:00:03.11 bitrate=   1.4kbits/s speed=0.0272x elapsed=0:01:54.74    \nframe=  188 fps=1.6 q=38.0 size=       1KiB time=00:00:03.11 bitrate=   1.4kbits/s speed=0.027x elapsed=0:01:55.26    \nframe=  189 fps=1.6 q=38.0 size=       1KiB time=00:00:03.13 bitrate=   1.4kbits/s speed=0.0271x elapsed=0:01:55.78    \nframe=  189 fps=1.6 q=38.0 size=       1KiB time=00:00:03.13 bitrate=   1.4kbits/s speed=0.0269x elapsed=0:01:56.29    \nframe=  192 fps=1.6 q=37.0 size=       1KiB time=00:00:03.18 bitrate=   1.4kbits/s speed=0.0272x elapsed=0:01:56.82    \nframe=  193 fps=1.6 q=24.0 size=       1KiB time=00:00:03.20 bitrate=   1.4kbits/s speed=0.0273x elapsed=0:01:57.33    \nframe=  194 fps=1.6 q=39.0 size=       1KiB time=00:00:03.21 bitrate=   1.4kbits/s speed=0.0273x elapsed=0:01:57.85    \nframe=  195 fps=1.6 q=39.0 size=       1KiB time=00:00:03.23 bitrate=   1.4kbits/s speed=0.0273x elapsed=0:01:58.37    \nframe=  196 fps=1.6 q=39.0 size=       1KiB time=00:00:03.25 bitrate=   1.4kbits/s speed=0.0273x elapsed=0:01:58.89    \nframe=  198 fps=1.7 q=39.0 size=       1KiB time=00:00:03.28 bitrate=   1.4kbits/s speed=0.0275x elapsed=0:01:59.40    \nframe=  199 fps=1.7 q=39.0 size=       1KiB time=00:00:03.30 bitrate=   1.4kbits/s speed=0.0275x elapsed=0:01:59.91    \nframe=  199 fps=1.7 q=39.0 size=       1KiB time=00:00:03.30 bitrate=   1.4kbits/s speed=0.0274x elapsed=0:02:00.43    \nframe=  200 fps=1.7 q=39.0 size=       1KiB time=00:00:03.31 bitrate=   1.4kbits/s speed=0.0274x elapsed=0:02:00.94    \nframe=  202 fps=1.7 q=39.0 size=       1KiB time=00:00:03.35 bitrate=   1.3kbits/s speed=0.0276x elapsed=0:02:01.47    \nframe=  203 fps=1.7 q=39.0 size=       1KiB time=00:00:03.36 bitrate=   1.3kbits/s speed=0.0276x elapsed=0:02:01.98    \nframe=  205 fps=1.7 q=38.0 size=       1KiB time=00:00:03.40 bitrate=   1.3kbits/s speed=0.0278x elapsed=0:02:02.49    \nframe=  206 fps=1.7 q=39.0 size=       1KiB time=00:00:03.41 bitrate=   1.3kbits/s speed=0.0278x elapsed=0:02:03.01    \nframe=  207 fps=1.7 q=39.0 size=       1KiB time=00:00:03.43 bitrate=   1.3kbits/s speed=0.0278x elapsed=0:02:03.52    \nframe=  207 fps=1.7 q=39.0 size=       1KiB time=00:00:03.43 bitrate=   1.3kbits/s speed=0.0277x elapsed=0:02:04.04    \nframe=  208 fps=1.7 q=39.0 size=       1KiB time=00:00:03.45 bitrate=   1.3kbits/s speed=0.0277x elapsed=0:02:04.56    \nframe=  210 fps=1.7 q=39.0 size=       1KiB time=00:00:03.48 bitrate=   1.3kbits/s speed=0.0278x elapsed=0:02:05.07    \nframe=  211 fps=1.7 q=38.0 size=       1KiB time=00:00:03.50 bitrate=   1.3kbits/s speed=0.0279x elapsed=0:02:05.58    \nframe=  211 fps=1.7 q=38.0 size=       1KiB time=00:00:03.50 bitrate=   1.3kbits/s speed=0.0278x elapsed=0:02:06.10    \nframe=  213 fps=1.7 q=37.0 size=       1KiB time=00:00:03.53 bitrate=   1.3kbits/s speed=0.0279x elapsed=0:02:06.62    \nframe=  214 fps=1.7 q=39.0 size=       1KiB time=00:00:03.55 bitrate=   1.3kbits/s speed=0.0279x elapsed=0:02:07.14    \nframe=  215 fps=1.7 q=38.0 size=       1KiB time=00:00:03.56 bitrate=   1.3kbits/s speed=0.0279x elapsed=0:02:07.65    \nframe=  216 fps=1.7 q=39.0 size=       1KiB time=00:00:03.58 bitrate=   1.3kbits/s speed=0.028x elapsed=0:02:08.16    \nframe=  217 fps=1.7 q=30.0 size=       1KiB time=00:00:03.60 bitrate=   1.2kbits/s speed=0.028x elapsed=0:02:08.68    \nframe=  218 fps=1.7 q=39.0 size=       1KiB time=00:00:03.61 bitrate=   1.2kbits/s speed=0.028x elapsed=0:02:09.20    \nframe=  219 fps=1.7 q=38.0 size=       1KiB time=00:00:03.63 bitrate=   1.2kbits/s speed=0.028x elapsed=0:02:09.72    \nframe=  221 fps=1.7 q=37.0 size=       1KiB time=00:00:03.66 bitrate=   1.2kbits/s speed=0.0282x elapsed=0:02:10.22    \nframe=  222 fps=1.7 q=39.0 size=       1KiB time=00:00:03.68 bitrate=   1.2kbits/s speed=0.0282x elapsed=0:02:10.75    \nframe=  222 fps=1.7 q=39.0 size=       1KiB time=00:00:03.68 bitrate=   1.2kbits/s speed=0.0281x elapsed=0:02:11.26    \nframe=  222 fps=1.7 q=39.0 size=       1KiB time=00:00:03.68 bitrate=   1.2kbits/s speed=0.0279x elapsed=0:02:11.78    \nframe=  222 fps=1.7 q=39.0 size=       1KiB time=00:00:03.68 bitrate=   1.2kbits/s speed=0.0278x elapsed=0:02:12.29    \nframe=  223 fps=1.7 q=38.0 size=       1KiB time=00:00:03.70 bitrate=   1.2kbits/s speed=0.0279x elapsed=0:02:12.81    \nframe=  224 fps=1.7 q=39.0 size=       1KiB time=00:00:03.71 bitrate=   1.2kbits/s speed=0.0279x elapsed=0:02:13.33    \nframe=  224 fps=1.7 q=39.0 size=       1KiB time=00:00:03.71 bitrate=   1.2kbits/s speed=0.0278x elapsed=0:02:13.85    \nframe=  226 fps=1.7 q=39.0 size=       1KiB time=00:00:03.75 bitrate=   1.2kbits/s speed=0.0279x elapsed=0:02:14.36    \nframe=  227 fps=1.7 q=38.0 size=       1KiB time=00:00:03.76 bitrate=   1.2kbits/s speed=0.0279x elapsed=0:02:14.88    \nframe=  227 fps=1.7 q=38.0 size=       1KiB time=00:00:03.76 bitrate=   1.2kbits/s speed=0.0278x elapsed=0:02:15.41    \nframe=  228 fps=1.7 q=39.0 size=       1KiB time=00:00:03.78 bitrate=   1.2kbits/s speed=0.0278x elapsed=0:02:15.91    \nframe=  229 fps=1.7 q=36.0 size=       1KiB time=00:00:03.80 bitrate=   1.2kbits/s speed=0.0279x elapsed=0:02:16.44    \nframe=  229 fps=1.7 q=36.0 size=       1KiB time=00:00:03.80 bitrate=   1.2kbits/s speed=0.0277x elapsed=0:02:16.95    \nframe=  230 fps=1.7 q=39.0 size=       1KiB time=00:00:03.81 bitrate=   1.2kbits/s speed=0.0278x elapsed=0:02:17.46    \nframe=  231 fps=1.7 q=38.0 size=       1KiB time=00:00:03.83 bitrate=   1.2kbits/s speed=0.0278x elapsed=0:02:17.97    \nframe=  232 fps=1.7 q=39.0 size=       1KiB time=00:00:03.85 bitrate=   1.2kbits/s speed=0.0278x elapsed=0:02:18.49    \nframe=  234 fps=1.7 q=39.0 size=       1KiB time=00:00:03.88 bitrate=   1.2kbits/s speed=0.0279x elapsed=0:02:19.01    \nframe=  235 fps=1.7 q=38.0 size=       1KiB time=00:00:03.90 bitrate=   1.1kbits/s speed=0.028x elapsed=0:02:19.52    \nframe=  236 fps=1.7 q=39.0 size=       1KiB time=00:00:03.91 bitrate=   1.1kbits/s speed=0.028x elapsed=0:02:20.05    \nframe=  238 fps=1.7 q=39.0 size=       1KiB time=00:00:03.95 bitrate=   1.1kbits/s speed=0.0281x elapsed=0:02:20.55    \nframe=  238 fps=1.7 q=39.0 size=       1KiB time=00:00:03.95 bitrate=   1.1kbits/s speed=0.028x elapsed=0:02:21.07    \nframe=  239 fps=1.7 q=38.0 size=       1KiB time=00:00:03.96 bitrate=   1.1kbits/s speed=0.028x elapsed=0:02:21.58    \nframe=  240 fps=1.7 q=39.0 size=       1KiB time=00:00:03.98 bitrate=   1.1kbits/s speed=0.028x elapsed=0:02:22.10    \nframe=  242 fps=1.7 q=39.0 size=       1KiB time=00:00:04.00 bitrate=   1.1kbits/s speed=0.028x elapsed=0:02:22.64    \nframe=  243 fps=1.7 q=38.0 size=       1KiB time=00:00:04.03 bitrate=   1.1kbits/s speed=0.0281x elapsed=0:02:23.28    \nframe=  245 fps=1.7 q=36.0 size=       1KiB time=00:00:04.05 bitrate=   1.1kbits/s speed=0.0281x elapsed=0:02:23.89    \nframe=  246 fps=1.7 q=39.0 size=       1KiB time=00:00:04.08 bitrate=   1.1kbits/s speed=0.0283x elapsed=0:02:24.46    \nframe=  246 fps=1.7 q=39.0 size=       1KiB time=00:00:04.08 bitrate=   1.1kbits/s speed=0.0281x elapsed=0:02:25.06    \nframe=  247 fps=1.7 q=38.0 size=       1KiB time=00:00:04.10 bitrate=   1.1kbits/s speed=0.0282x elapsed=0:02:25.63    \nframe=  249 fps=1.7 q=32.0 size=       1KiB time=00:00:04.11 bitrate=   1.1kbits/s speed=0.0282x elapsed=0:02:26.16    \nframe=  249 fps=1.7 q=32.0 size=       1KiB time=00:00:04.13 bitrate=   1.1kbits/s speed=0.0282x elapsed=0:02:26.82    \nframe=  250 fps=1.7 q=39.0 size=       1KiB time=00:00:04.15 bitrate=   1.1kbits/s speed=0.0282x elapsed=0:02:27.33    \nframe=  251 fps=1.7 q=38.0 size=       1KiB time=00:00:04.16 bitrate=   1.1kbits/s speed=0.0282x elapsed=0:02:27.85    \nframe=  252 fps=1.7 q=39.0 size=       1KiB time=00:00:04.18 bitrate=   1.1kbits/s speed=0.0282x elapsed=0:02:28.37    \nframe=  253 fps=1.7 q=37.0 size=       1KiB time=00:00:04.20 bitrate=   1.1kbits/s speed=0.0282x elapsed=0:02:28.89    \nframe=  253 fps=1.7 q=37.0 size=       1KiB time=00:00:04.20 bitrate=   1.1kbits/s speed=0.0281x elapsed=0:02:29.39    \nframe=  253 fps=1.7 q=37.0 size=       1KiB time=00:00:04.20 bitrate=   1.1kbits/s speed=0.028x elapsed=0:02:29.92    \nframe=  253 fps=1.7 q=37.0 size=       1KiB time=00:00:04.20 bitrate=   1.1kbits/s speed=0.0279x elapsed=0:02:30.43    \nframe=  254 fps=1.7 q=39.0 size=       1KiB time=00:00:04.21 bitrate=   1.1kbits/s speed=0.0279x elapsed=0:02:30.95    \nframe=  254 fps=1.7 q=39.0 size=       1KiB time=00:00:04.21 bitrate=   1.1kbits/s speed=0.0278x elapsed=0:02:31.46    \nframe=  254 fps=1.7 q=39.0 size=       1KiB time=00:00:04.21 bitrate=   1.1kbits/s speed=0.0277x elapsed=0:02:31.98    \nframe=  255 fps=1.7 q=38.0 size=       1KiB time=00:00:04.23 bitrate=   1.1kbits/s speed=0.0278x elapsed=0:02:32.49    \nframe=  255 fps=1.7 q=38.0 size=       1KiB time=00:00:04.23 bitrate=   1.1kbits/s speed=0.0277x elapsed=0:02:33.02    \nframe=  255 fps=1.7 q=38.0 size=       1KiB time=00:00:04.23 bitrate=   1.1kbits/s speed=0.0276x elapsed=0:02:33.53    \nframe=  256 fps=1.7 q=39.0 size=       1KiB time=00:00:04.25 bitrate=   1.1kbits/s speed=0.0276x elapsed=0:02:34.04    \nframe=  257 fps=1.7 q=23.0 size=       1KiB time=00:00:04.26 bitrate=   1.0kbits/s speed=0.0276x elapsed=0:02:34.55    \nframe=  258 fps=1.7 q=40.0 size=       1KiB time=00:00:04.28 bitrate=   1.0kbits/s speed=0.0276x elapsed=0:02:35.07    \nframe=  259 fps=1.7 q=39.0 size=       1KiB time=00:00:04.30 bitrate=   1.0kbits/s speed=0.0276x elapsed=0:02:35.58    \nframe=  260 fps=1.7 q=40.0 size=       1KiB time=00:00:04.31 bitrate=   1.0kbits/s speed=0.0277x elapsed=0:02:36.10    \nframe=  262 fps=1.7 q=40.0 size=       1KiB time=00:00:04.35 bitrate=   1.0kbits/s speed=0.0278x elapsed=0:02:36.62    \nframe=  262 fps=1.7 q=40.0 size=       1KiB time=00:00:04.35 bitrate=   1.0kbits/s speed=0.0277x elapsed=0:02:37.14    \nframe=  263 fps=1.7 q=39.0 size=       1KiB time=00:00:04.36 bitrate=   1.0kbits/s speed=0.0277x elapsed=0:02:37.64    \nframe=  263 fps=1.7 q=39.0 size=       1KiB time=00:00:04.36 bitrate=   1.0kbits/s speed=0.0276x elapsed=0:02:38.17    \nframe=  265 fps=1.7 q=31.0 size=       1KiB time=00:00:04.40 bitrate=   1.0kbits/s speed=0.0277x elapsed=0:02:38.69    \nframe=  266 fps=1.7 q=40.0 size=       1KiB time=00:00:04.41 bitrate=   1.0kbits/s speed=0.0277x elapsed=0:02:39.19    \nframe=  267 fps=1.7 q=39.0 size=       1KiB time=00:00:04.43 bitrate=   1.0kbits/s speed=0.0278x elapsed=0:02:39.71    \nframe=  267 fps=1.7 q=39.0 size=       1KiB time=00:00:04.43 bitrate=   1.0kbits/s speed=0.0277x elapsed=0:02:40.22    \nframe=  269 fps=1.7 q=38.0 size=       1KiB time=00:00:04.46 bitrate=   1.0kbits/s speed=0.0278x elapsed=0:02:40.74    \nframe=  270 fps=1.7 q=39.0 size=       1KiB time=00:00:04.48 bitrate=   1.0kbits/s speed=0.0278x elapsed=0:02:41.26    \nframe=  271 fps=1.7 q=36.0 size=       1KiB time=00:00:04.50 bitrate=   1.0kbits/s speed=0.0278x elapsed=0:02:41.77    \nframe=  272 fps=1.7 q=36.0 size=       1KiB time=00:00:04.51 bitrate=   1.0kbits/s speed=0.0278x elapsed=0:02:42.30    \nframe=  274 fps=1.7 q=41.0 size=       1KiB time=00:00:04.55 bitrate=   1.0kbits/s speed=0.0279x elapsed=0:02:42.80    \nframe=  275 fps=1.7 q=40.0 size=       1KiB time=00:00:04.56 bitrate=   1.0kbits/s speed=0.028x elapsed=0:02:43.32    \nframe=  275 fps=1.7 q=40.0 size=       1KiB time=00:00:04.56 bitrate=   1.0kbits/s speed=0.0279x elapsed=0:02:43.84    \nframe=  276 fps=1.7 q=41.0 size=       1KiB time=00:00:04.58 bitrate=   1.0kbits/s speed=0.0279x elapsed=0:02:44.35    \nframe=  277 fps=1.7 q=38.0 size=       1KiB time=00:00:04.60 bitrate=   1.0kbits/s speed=0.0279x elapsed=0:02:44.87    \nframe=  278 fps=1.7 q=41.0 size=       1KiB time=00:00:04.61 bitrate=   1.0kbits/s speed=0.0279x elapsed=0:02:45.38    \nframe=  279 fps=1.7 q=40.0 size=       1KiB time=00:00:04.63 bitrate=   1.0kbits/s speed=0.0279x elapsed=0:02:45.89    \nframe=  280 fps=1.7 q=41.0 size=       1KiB time=00:00:04.65 bitrate=   1.0kbits/s speed=0.0279x elapsed=0:02:46.41    \nframe=  281 fps=1.7 q=31.0 size=       1KiB time=00:00:04.66 bitrate=   1.0kbits/s speed=0.028x elapsed=0:02:46.94    \nframe=  281 fps=1.7 q=31.0 size=       1KiB time=00:00:04.66 bitrate=   1.0kbits/s speed=0.0279x elapsed=0:02:47.45    \nframe=  282 fps=1.7 q=41.0 size=       1KiB time=00:00:04.68 bitrate=   1.0kbits/s speed=0.0279x elapsed=0:02:47.96    \nframe=  283 fps=1.7 q=40.0 size=       1KiB time=00:00:04.70 bitrate=   1.0kbits/s speed=0.0279x elapsed=0:02:48.47    \nframe=  285 fps=1.7 q=38.0 size=       1KiB time=00:00:04.73 bitrate=   0.9kbits/s speed=0.028x elapsed=0:02:48.99    \nframe=  286 fps=1.7 q=42.0 size=       1KiB time=00:00:04.75 bitrate=   0.9kbits/s speed=0.028x elapsed=0:02:49.52    \nframe=  287 fps=1.7 q=40.0 size=       1KiB time=00:00:04.76 bitrate=   0.9kbits/s speed=0.028x elapsed=0:02:50.03    \nframe=  288 fps=1.7 q=43.0 size=       1KiB time=00:00:04.78 bitrate=   0.9kbits/s speed=0.028x elapsed=0:02:50.55    \nframe=  289 fps=1.7 q=22.0 size=       1KiB time=00:00:04.80 bitrate=   0.9kbits/s speed=0.0281x elapsed=0:02:51.06    \nframe=  290 fps=1.7 q=42.0 size=       1KiB time=00:00:04.81 bitrate=   0.9kbits/s speed=0.0281x elapsed=0:02:51.57    \nframe=  291 fps=1.7 q=41.0 size=       1KiB time=00:00:04.83 bitrate=   0.9kbits/s speed=0.0281x elapsed=0:02:52.08    \nframe=  291 fps=1.7 q=41.0 size=       1KiB time=00:00:04.83 bitrate=   0.9kbits/s speed=0.028x elapsed=0:02:52.60    \nframe=  292 fps=1.7 q=42.0 size=       1KiB time=00:00:04.85 bitrate=   0.9kbits/s speed=0.028x elapsed=0:02:53.12    \nframe=  293 fps=1.7 q=39.0 size=       1KiB time=00:00:04.86 bitrate=   0.9kbits/s speed=0.028x elapsed=0:02:53.64    \nframe=  294 fps=1.7 q=42.0 size=       1KiB time=00:00:04.88 bitrate=   0.9kbits/s speed=0.028x elapsed=0:02:54.14    \nframe=  294 fps=1.7 q=42.0 size=       1KiB time=00:00:04.88 bitrate=   0.9kbits/s speed=0.028x elapsed=0:02:54.67    \nframe=  295 fps=1.7 q=41.0 size=       1KiB time=00:00:04.90 bitrate=   0.9kbits/s speed=0.028x elapsed=0:02:55.18    \nframe=  297 fps=1.7 q=33.0 size=       1KiB time=00:00:04.93 bitrate=   0.9kbits/s speed=0.0281x elapsed=0:02:55.70    \nframe=  299 fps=1.7 q=41.0 size=       1KiB time=00:00:04.96 bitrate=   0.9kbits/s speed=0.0282x elapsed=0:02:56.21    \nframe=  301 fps=1.7 q=38.0 size=       1KiB time=00:00:05.00 bitrate=   0.9kbits/s speed=0.0283x elapsed=0:02:56.73    \nframe=  303 fps=1.7 q=38.0 size=    1792KiB time=00:00:05.03 bitrate=2916.6kbits/s speed=0.0284x elapsed=0:02:57.29    \nframe=  305 fps=1.7 q=24.0 size=    1792KiB time=00:00:05.06 bitrate=2897.4kbits/s speed=0.0285x elapsed=0:02:57.89    \nframe=  306 fps=1.7 q=43.0 size=    1792KiB time=00:00:05.08 bitrate=2887.9kbits/s speed=0.0285x elapsed=0:02:58.43    \nframe=  307 fps=1.7 q=42.0 size=    1792KiB time=00:00:05.10 bitrate=2878.4kbits/s speed=0.0285x elapsed=0:02:58.94    \nframe=  308 fps=1.7 q=43.0 size=    1792KiB time=00:00:05.11 bitrate=2869.1kbits/s speed=0.0285x elapsed=0:02:59.51    \nframe=  309 fps=1.7 q=41.0 size=    1792KiB time=00:00:05.13 bitrate=2859.8kbits/s speed=0.0285x elapsed=0:03:00.06    \nframe=  310 fps=1.7 q=43.0 size=    1792KiB time=00:00:05.15 bitrate=2850.5kbits/s speed=0.0285x elapsed=0:03:00.58    \nframe=  312 fps=1.7 q=43.0 size=    1792KiB time=00:00:05.16 bitrate=2841.3kbits/s speed=0.0285x elapsed=0:03:01.14    \nframe=  314 fps=1.7 q=43.0 size=    1792KiB time=00:00:05.20 bitrate=2823.1kbits/s speed=0.0286x elapsed=0:03:01.81    \nframe=  315 fps=1.7 q=42.0 size=    1792KiB time=00:00:05.23 bitrate=2805.1kbits/s speed=0.0287x elapsed=0:03:02.45    \nframe=  316 fps=1.7 q=43.0 size=    1792KiB time=00:00:05.25 bitrate=2796.2kbits/s speed=0.0287x elapsed=0:03:02.96    \nframe=  317 fps=1.7 q=41.0 size=    1792KiB time=00:00:05.26 bitrate=2787.4kbits/s speed=0.0287x elapsed=0:03:03.47    \nframe=  317 fps=1.7 q=41.0 size=    1792KiB time=00:00:05.26 bitrate=2787.4kbits/s speed=0.0286x elapsed=0:03:03.99    \nframe=  317 fps=1.7 q=41.0 size=    1792KiB time=00:00:05.26 bitrate=2787.4kbits/s speed=0.0285x elapsed=0:03:04.50    \nframe=  317 fps=1.7 q=41.0 size=    1792KiB time=00:00:05.26 bitrate=2787.4kbits/s speed=0.0285x elapsed=0:03:05.02    \nframe=  317 fps=1.7 q=41.0 size=    1792KiB time=00:00:05.26 bitrate=2787.4kbits/s speed=0.0284x elapsed=0:03:05.54    \nframe=  317 fps=1.7 q=41.0 size=    1792KiB time=00:00:05.26 bitrate=2787.4kbits/s speed=0.0283x elapsed=0:03:06.06    \nframe=  317 fps=1.7 q=41.0 size=    1792KiB time=00:00:05.26 bitrate=2787.4kbits/s speed=0.0282x elapsed=0:03:06.57    \nframe=  318 fps=1.7 q=43.0 size=    1792KiB time=00:00:05.28 bitrate=2778.6kbits/s speed=0.0282x elapsed=0:03:07.09    \nframe=  318 fps=1.7 q=43.0 size=    1792KiB time=00:00:05.28 bitrate=2778.6kbits/s speed=0.0282x elapsed=0:03:07.60    \nframe=  318 fps=1.7 q=43.0 size=    1792KiB time=00:00:05.28 bitrate=2778.6kbits/s speed=0.0281x elapsed=0:03:08.11    \nframe=  318 fps=1.7 q=43.0 size=    1792KiB time=00:00:05.28 bitrate=2778.6kbits/s speed=0.028x elapsed=0:03:08.76    \nframe=  318 fps=1.7 q=43.0 size=    1792KiB time=00:00:05.28 bitrate=2778.6kbits/s speed=0.0279x elapsed=0:03:09.68    \nframe=  318 fps=1.7 q=43.0 size=    1792KiB time=00:00:05.28 bitrate=2778.6kbits/s speed=0.0277x elapsed=0:03:10.53    \nframe=  319 fps=1.7 q=42.0 size=    1792KiB time=00:00:05.30 bitrate=2769.8kbits/s speed=0.0277x elapsed=0:03:11.31    \nframe=  319 fps=1.7 q=42.0 size=    1792KiB time=00:00:05.30 bitrate=2769.8kbits/s speed=0.0276x elapsed=0:03:12.17    \nframe=  320 fps=1.7 q=43.0 size=    1792KiB time=00:00:05.31 bitrate=2761.1kbits/s speed=0.0276x elapsed=0:03:12.80    \nframe=  320 fps=1.7 q=43.0 size=    1792KiB time=00:00:05.31 bitrate=2761.1kbits/s speed=0.0275x elapsed=0:03:13.32    \nframe=  321 fps=1.7 q=33.0 size=    1792KiB time=00:00:05.33 bitrate=2752.5kbits/s speed=0.0275x elapsed=0:03:13.84    \nframe=  323 fps=1.7 q=45.0 size=    1792KiB time=00:00:05.36 bitrate=2735.4kbits/s speed=0.0276x elapsed=0:03:14.35    \nframe=  325 fps=1.7 q=45.0 size=    1792KiB time=00:00:05.40 bitrate=2718.5kbits/s speed=0.0277x elapsed=0:03:14.87    \nframe=  327 fps=1.7 q=45.0 size=    1792KiB time=00:00:05.43 bitrate=2701.9kbits/s speed=0.0278x elapsed=0:03:15.38    \nframe=  328 fps=1.7 q=44.0 size=    1792KiB time=00:00:05.45 bitrate=2693.6kbits/s speed=0.0278x elapsed=0:03:15.91    \nframe=  328 fps=1.7 q=44.0 size=    1792KiB time=00:00:05.45 bitrate=2693.6kbits/s speed=0.0277x elapsed=0:03:16.41    \nframe=  331 fps=1.7 q=44.0 size=    1792KiB time=00:00:05.50 bitrate=2669.1kbits/s speed=0.0279x elapsed=0:03:16.93    \nframe=  332 fps=1.7 q=43.0 size=    1792KiB time=00:00:05.51 bitrate=2661.0kbits/s speed=0.0279x elapsed=0:03:17.45    \nframe=  333 fps=1.7 q=44.0 size=    1792KiB time=00:00:05.53 bitrate=2653.0kbits/s speed=0.028x elapsed=0:03:17.96    \nframe=  335 fps=1.7 q=44.0 size=    1792KiB time=00:00:05.56 bitrate=2637.1kbits/s speed=0.028x elapsed=0:03:18.48    \nframe=  335 fps=1.7 q=44.0 size=    1792KiB time=00:00:05.56 bitrate=2637.1kbits/s speed=0.028x elapsed=0:03:18.99    \nframe=  335 fps=1.7 q=44.0 size=    1792KiB time=00:00:05.56 bitrate=2637.1kbits/s speed=0.0279x elapsed=0:03:19.51    \nframe=  336 fps=1.7 q=43.0 size=    1792KiB time=00:00:05.58 bitrate=2629.3kbits/s speed=0.0279x elapsed=0:03:20.02    \nframe=  337 fps=1.7 q=44.0 size=    1792KiB time=00:00:05.60 bitrate=2621.4kbits/s speed=0.0279x elapsed=0:03:20.54    \nframe=  338 fps=1.7 q=25.0 size=    1792KiB time=00:00:05.61 bitrate=2613.7kbits/s speed=0.0279x elapsed=0:03:21.05    \nframe=  340 fps=1.7 q=44.0 size=    1792KiB time=00:00:05.65 bitrate=2598.2kbits/s speed=0.028x elapsed=0:03:21.57    \nframe=  341 fps=1.7 q=45.0 size=    1792KiB time=00:00:05.66 bitrate=2590.6kbits/s speed=0.028x elapsed=0:03:22.08    \nframe=  343 fps=1.7 q=45.0 size=    1792KiB time=00:00:05.70 bitrate=2575.4kbits/s speed=0.0281x elapsed=0:03:22.61    \nframe=  343 fps=1.7 q=45.0 size=    1792KiB time=00:00:05.70 bitrate=2575.4kbits/s speed=0.0281x elapsed=0:03:23.11    \nframe=  344 fps=1.7 q=44.0 size=    1792KiB time=00:00:05.71 bitrate=2567.9kbits/s speed=0.0281x elapsed=0:03:23.63    \nframe=  346 fps=1.7 q=36.0 size=    1792KiB time=00:00:05.75 bitrate=2553.1kbits/s speed=0.0282x elapsed=0:03:24.16    \nframe=  347 fps=1.7 q=45.0 size=    1792KiB time=00:00:05.76 bitrate=2545.7kbits/s speed=0.0282x elapsed=0:03:24.67    \nframe=  348 fps=1.7 q=44.0 size=    1792KiB time=00:00:05.78 bitrate=2538.3kbits/s speed=0.0282x elapsed=0:03:25.18    \nframe=  350 fps=1.7 q=41.0 size=    1792KiB time=00:00:05.81 bitrate=2523.8kbits/s speed=0.0283x elapsed=0:03:25.70    \nframe=  351 fps=1.7 q=45.0 size=    1792KiB time=00:00:05.83 bitrate=2516.6kbits/s speed=0.0283x elapsed=0:03:26.21    \nframe=  352 fps=1.7 q=44.0 size=    1792KiB time=00:00:05.85 bitrate=2509.4kbits/s speed=0.0283x elapsed=0:03:26.73    \nframe=  352 fps=1.7 q=44.0 size=    1792KiB time=00:00:05.85 bitrate=2509.4kbits/s speed=0.0282x elapsed=0:03:27.25    \nframe=  353 fps=1.7 q=37.0 size=    1792KiB time=00:00:05.86 bitrate=2502.3kbits/s speed=0.0282x elapsed=0:03:27.76    \nframe=  355 fps=1.7 q=45.0 size=    1792KiB time=00:00:05.90 bitrate=2488.1kbits/s speed=0.0283x elapsed=0:03:28.27    \nframe=  356 fps=1.7 q=44.0 size=    1792KiB time=00:00:05.91 bitrate=2481.1kbits/s speed=0.0283x elapsed=0:03:28.79    \nframe=  358 fps=1.7 q=42.0 size=    1792KiB time=00:00:05.95 bitrate=2467.2kbits/s speed=0.0284x elapsed=0:03:29.31    \nframe=  359 fps=1.7 q=45.0 size=    1792KiB time=00:00:05.96 bitrate=2460.3kbits/s speed=0.0284x elapsed=0:03:29.83    \nframe=  361 fps=1.7 q=45.0 size=    1792KiB time=00:00:06.00 bitrate=2446.7kbits/s speed=0.0285x elapsed=0:03:30.33    \nframe=  362 fps=1.7 q=37.0 size=    1792KiB time=00:00:06.01 bitrate=2439.9kbits/s speed=0.0285x elapsed=0:03:30.85    \nframe=  363 fps=1.7 q=45.0 size=    1792KiB time=00:00:06.03 bitrate=2433.2kbits/s speed=0.0285x elapsed=0:03:31.36    \nframe=  364 fps=1.7 q=44.0 size=    1792KiB time=00:00:06.03 bitrate=2433.2kbits/s speed=0.0285x elapsed=0:03:31.89    \nframe=  366 fps=1.7 q=42.0 size=    1792KiB time=00:00:06.08 bitrate=2413.2kbits/s speed=0.0286x elapsed=0:03:32.52    \nframe=  368 fps=1.7 q=44.0 size=    1792KiB time=00:00:06.11 bitrate=2400.0kbits/s speed=0.0287x elapsed=0:03:33.23    \nframe=  369 fps=1.7 q=38.0 size=    1792KiB time=00:00:06.13 bitrate=2393.5kbits/s speed=0.0287x elapsed=0:03:33.87    \nframe=  370 fps=1.7 q=27.0 size=    1792KiB time=00:00:06.15 bitrate=2387.0kbits/s speed=0.0287x elapsed=0:03:34.65    \nframe=  372 fps=1.7 q=44.0 size=    1792KiB time=00:00:06.18 bitrate=2374.1kbits/s speed=0.0287x elapsed=0:03:35.16    \nframe=  372 fps=1.7 q=44.0 size=    1792KiB time=00:00:06.18 bitrate=2374.1kbits/s speed=0.0287x elapsed=0:03:35.69    \nframe=  374 fps=1.7 q=42.0 size=    1792KiB time=00:00:06.21 bitrate=2361.4kbits/s speed=0.0288x elapsed=0:03:36.21    \nframe=  375 fps=1.7 q=45.0 size=    1792KiB time=00:00:06.23 bitrate=2355.1kbits/s speed=0.0288x elapsed=0:03:36.73    \nframe=  376 fps=1.7 q=44.0 size=    1792KiB time=00:00:06.25 bitrate=2348.8kbits/s speed=0.0288x elapsed=0:03:37.24    \nframe=  377 fps=1.7 q=45.0 size=    1792KiB time=00:00:06.26 bitrate=2342.6kbits/s speed=0.0288x elapsed=0:03:37.76    \nframe=  378 fps=1.7 q=38.0 size=    1792KiB time=00:00:06.28 bitrate=2336.3kbits/s speed=0.0288x elapsed=0:03:38.28    \nframe=  379 fps=1.7 q=45.0 size=    1792KiB time=00:00:06.30 bitrate=2330.2kbits/s speed=0.0288x elapsed=0:03:38.80    \nframe=  382 fps=1.7 q=42.0 size=    1792KiB time=00:00:06.35 bitrate=2311.8kbits/s speed=0.029x elapsed=0:03:39.32    \nframe=  383 fps=1.7 q=45.0 size=    1792KiB time=00:00:06.36 bitrate=2305.8kbits/s speed=0.029x elapsed=0:03:39.84    \nframe=  385 fps=1.7 q=38.0 size=    1792KiB time=00:00:06.40 bitrate=2293.8kbits/s speed=0.029x elapsed=0:03:40.36    \nframe=  386 fps=1.7 q=29.0 size=    1792KiB time=00:00:06.41 bitrate=2287.8kbits/s speed=0.0291x elapsed=0:03:40.86    \nframe=  387 fps=1.7 q=45.0 size=    1792KiB time=00:00:06.43 bitrate=2281.9kbits/s speed=0.0291x elapsed=0:03:41.38    \nframe=  388 fps=1.7 q=44.0 size=    1792KiB time=00:00:06.45 bitrate=2276.0kbits/s speed=0.0291x elapsed=0:03:41.90    \nframe=  388 fps=1.7 q=44.0 size=    1792KiB time=00:00:06.45 bitrate=2276.0kbits/s speed=0.029x elapsed=0:03:42.42    \nframe=  390 fps=1.7 q=42.0 size=    1792KiB time=00:00:06.48 bitrate=2264.3kbits/s speed=0.0291x elapsed=0:03:42.94    \nframe=  391 fps=1.7 q=45.0 size=    1792KiB time=00:00:06.50 bitrate=2258.5kbits/s speed=0.0291x elapsed=0:03:43.45    \nframe=  392 fps=1.8 q=44.0 size=    1792KiB time=00:00:06.51 bitrate=2252.7kbits/s speed=0.0291x elapsed=0:03:43.96    \nframe=  394 fps=1.8 q=37.0 size=    1792KiB time=00:00:06.55 bitrate=2241.2kbits/s speed=0.0292x elapsed=0:03:44.48    \nframe=  395 fps=1.8 q=45.0 size=    1792KiB time=00:00:06.56 bitrate=2235.5kbits/s speed=0.0292x elapsed=0:03:45.00    \nframe=  397 fps=1.8 q=45.0 size=    1792KiB time=00:00:06.60 bitrate=2224.3kbits/s speed=0.0293x elapsed=0:03:45.52    \nframe=  398 fps=1.8 q=42.0 size=    1792KiB time=00:00:06.61 bitrate=2218.6kbits/s speed=0.0293x elapsed=0:03:46.03    \nframe=  400 fps=1.8 q=44.0 size=    1792KiB time=00:00:06.65 bitrate=2207.5kbits/s speed=0.0294x elapsed=0:03:46.55    \nframe=  401 fps=1.8 q=45.0 size=    1792KiB time=00:00:06.66 bitrate=2202.0kbits/s speed=0.0294x elapsed=0:03:47.05    \nframe=  402 fps=1.8 q=28.0 size=    1792KiB time=00:00:06.68 bitrate=2196.5kbits/s speed=0.0294x elapsed=0:03:47.56    \nframe=  404 fps=1.8 q=44.0 size=    1792KiB time=00:00:06.71 bitrate=2185.6kbits/s speed=0.0294x elapsed=0:03:48.09    \nframe=  407 fps=1.8 q=45.0 size=    1792KiB time=00:00:06.76 bitrate=2169.5kbits/s speed=0.0296x elapsed=0:03:48.60    \nframe=  408 fps=1.8 q=44.0 size=    1792KiB time=00:00:06.78 bitrate=2164.1kbits/s speed=0.0296x elapsed=0:03:49.12    \nframe=  409 fps=1.8 q=45.0 size=    1792KiB time=00:00:06.80 bitrate=2158.8kbits/s speed=0.0296x elapsed=0:03:49.64    \nframe=  410 fps=1.8 q=38.0 size=    1792KiB time=00:00:06.81 bitrate=2153.6kbits/s speed=0.0296x elapsed=0:03:50.15    \nframe=  412 fps=1.8 q=44.0 size=    1792KiB time=00:00:06.85 bitrate=2143.1kbits/s speed=0.0297x elapsed=0:03:50.66    \nframe=  413 fps=1.8 q=45.0 size=    1792KiB time=00:00:06.86 bitrate=2137.9kbits/s speed=0.0297x elapsed=0:03:51.20    \nframe=  416 fps=1.8 q=37.0 size=    1792KiB time=00:00:06.90 bitrate=2127.5kbits/s speed=0.0298x elapsed=0:03:51.79    \nframe=  416 fps=1.8 q=37.0 size=    1792KiB time=00:00:06.91 bitrate=2122.4kbits/s speed=0.0297x elapsed=0:03:52.50    \nframe=  417 fps=1.8 q=41.0 size=    1792KiB time=00:00:06.93 bitrate=2117.3kbits/s speed=0.0297x elapsed=0:03:53.18    \nframe=  418 fps=1.8 q=29.0 size=    1792KiB time=00:00:06.95 bitrate=2112.2kbits/s speed=0.0297x elapsed=0:03:53.76    \nframe=  419 fps=1.8 q=44.0 size=    1792KiB time=00:00:06.96 bitrate=2107.2kbits/s speed=0.0297x elapsed=0:03:54.33    \nframe=  420 fps=1.8 q=43.0 size=    1792KiB time=00:00:06.98 bitrate=2102.2kbits/s speed=0.0297x elapsed=0:03:54.88    \nframe=  421 fps=1.8 q=44.0 size=    1792KiB time=00:00:07.00 bitrate=2097.2kbits/s speed=0.0297x elapsed=0:03:55.39    \nframe=  422 fps=1.8 q=41.0 size=    1792KiB time=00:00:07.01 bitrate=2092.2kbits/s speed=0.0297x elapsed=0:03:55.91    \nframe=  423 fps=1.8 q=44.0 size=    1792KiB time=00:00:07.03 bitrate=2087.2kbits/s speed=0.0297x elapsed=0:03:56.43    \nframe=  424 fps=1.8 q=43.0 size=    1792KiB time=00:00:07.05 bitrate=2082.3kbits/s speed=0.0298x elapsed=0:03:56.96    \nframe=  425 fps=1.8 q=44.0 size=    1792KiB time=00:00:07.06 bitrate=2077.4kbits/s speed=0.0298x elapsed=0:03:57.47    \nframe=  426 fps=1.8 q=37.0 size=    1792KiB time=00:00:07.08 bitrate=2072.5kbits/s speed=0.0298x elapsed=0:03:57.99    \nframe=  429 fps=1.8 q=44.0 size=    1792KiB time=00:00:07.13 bitrate=2058.0kbits/s speed=0.0299x elapsed=0:03:58.51    \nframe=  429 fps=1.8 q=44.0 size=    1792KiB time=00:00:07.13 bitrate=2058.0kbits/s speed=0.0298x elapsed=0:03:59.05    \nframe=  430 fps=1.8 q=41.0 size=    1792KiB time=00:00:07.15 bitrate=2053.2kbits/s speed=0.0298x elapsed=0:03:59.59    \nframe=  433 fps=1.8 q=43.0 size=    1792KiB time=00:00:07.16 bitrate=2048.4kbits/s speed=0.0298x elapsed=0:04:00.10    \nframe=  434 fps=1.8 q=28.0 size=    1792KiB time=00:00:07.20 bitrate=2038.9kbits/s speed=0.0299x elapsed=0:04:00.75    \nframe=  436 fps=1.8 q=43.0 size=    1792KiB time=00:00:07.25 bitrate=2024.8kbits/s speed=0.03x elapsed=0:04:01.33    \nframe=  436 fps=1.8 q=43.0 size=    1792KiB time=00:00:07.25 bitrate=2024.8kbits/s speed=0.03x elapsed=0:04:01.87    \nframe=  438 fps=1.8 q=41.0 size=    1792KiB time=00:00:07.28 bitrate=2015.6kbits/s speed=0.03x elapsed=0:04:02.41    \nframe=  439 fps=1.8 q=44.0 size=    1792KiB time=00:00:07.30 bitrate=2011.0kbits/s speed=0.03x elapsed=0:04:02.94    \nframe=  441 fps=1.8 q=44.0 size=    1792KiB time=00:00:07.33 bitrate=2001.8kbits/s speed=0.0301x elapsed=0:04:03.52    \nframe=  443 fps=1.8 q=44.0 size=    1792KiB time=00:00:07.35 bitrate=1997.3kbits/s speed=0.0301x elapsed=0:04:04.09    \nframe=  444 fps=1.8 q=43.0 size=    1792KiB time=00:00:07.38 bitrate=1988.3kbits/s speed=0.0302x elapsed=0:04:04.74    \nframe=  445 fps=1.8 q=36.0 size=    1792KiB time=00:00:07.40 bitrate=1983.8kbits/s speed=0.0302x elapsed=0:04:05.34    \nframe=  445 fps=1.8 q=36.0 size=    1792KiB time=00:00:07.40 bitrate=1983.8kbits/s speed=0.0301x elapsed=0:04:06.03    \nframe=  447 fps=1.8 q=40.0 size=    1792KiB time=00:00:07.41 bitrate=1979.3kbits/s speed=0.0301x elapsed=0:04:06.56    \nframe=  449 fps=1.8 q=40.0 size=    1792KiB time=00:00:07.46 bitrate=1966.1kbits/s speed=0.0302x elapsed=0:04:07.17    \nframe=  451 fps=1.8 q=43.0 size=    1792KiB time=00:00:07.50 bitrate=1957.3kbits/s speed=0.0303x elapsed=0:04:07.79    \nframe=  452 fps=1.8 q=42.0 size=    1792KiB time=00:00:07.51 bitrate=1953.0kbits/s speed=0.0303x elapsed=0:04:08.38    \nframe=  455 fps=1.8 q=43.0 size=    1792KiB time=00:00:07.56 bitrate=1940.1kbits/s speed=0.0304x elapsed=0:04:08.96    \nframe=  456 fps=1.8 q=42.0 size=    1792KiB time=00:00:07.58 bitrate=1935.8kbits/s speed=0.0304x elapsed=0:04:09.48    \nframe=  457 fps=1.8 q=43.0 size=    1792KiB time=00:00:07.60 bitrate=1931.6kbits/s speed=0.0304x elapsed=0:04:10.01    \nframe=  459 fps=1.8 q=43.0 size=    1792KiB time=00:00:07.63 bitrate=1923.2kbits/s speed=0.0305x elapsed=0:04:10.52    \nframe=  461 fps=1.8 q=43.0 size=    1792KiB time=00:00:07.66 bitrate=1914.8kbits/s speed=0.0305x elapsed=0:04:11.07    \nframe=  462 fps=1.8 q=40.0 size=    1792KiB time=00:00:07.68 bitrate=1910.6kbits/s speed=0.0305x elapsed=0:04:11.66    \nframe=  464 fps=1.8 q=42.0 size=    1792KiB time=00:00:07.71 bitrate=1902.4kbits/s speed=0.0306x elapsed=0:04:12.19    \nframe=  464 fps=1.8 q=42.0 size=    1792KiB time=00:00:07.71 bitrate=1902.4kbits/s speed=0.0305x elapsed=0:04:12.72    \nframe=  465 fps=1.8 q=36.0 size=    1792KiB time=00:00:07.73 bitrate=1898.3kbits/s speed=0.0305x elapsed=0:04:13.27    \nframe=  466 fps=1.8 q=27.0 size=    1792KiB time=00:00:07.75 bitrate=1894.2kbits/s speed=0.0305x elapsed=0:04:13.82    \nframe=  468 fps=1.8 q=43.0 size=    1792KiB time=00:00:07.78 bitrate=1886.1kbits/s speed=0.0306x elapsed=0:04:14.34    \nframe=  469 fps=1.8 q=44.0 size=    1792KiB time=00:00:07.80 bitrate=1882.1kbits/s speed=0.0306x elapsed=0:04:14.86    \nframe=  471 fps=1.8 q=44.0 size=    1792KiB time=00:00:07.83 bitrate=1874.1kbits/s speed=0.0307x elapsed=0:04:15.51    \nframe=  472 fps=1.8 q=43.0 size=    1792KiB time=00:00:07.85 bitrate=1870.1kbits/s speed=0.0307x elapsed=0:04:16.07    \nframe=  475 fps=1.9 q=44.0 size=    1792KiB time=00:00:07.88 bitrate=1862.2kbits/s speed=0.0307x elapsed=0:04:16.62    \nframe=  476 fps=1.9 q=43.0 size=    1792KiB time=00:00:07.91 bitrate=1854.3kbits/s speed=0.0308x elapsed=0:04:17.25    \nframe=  478 fps=1.9 q=41.0 size=    1792KiB time=00:00:07.95 bitrate=1846.5kbits/s speed=0.0308x elapsed=0:04:17.78    \nframe=  479 fps=1.9 q=44.0 size=    1792KiB time=00:00:07.96 bitrate=1842.7kbits/s speed=0.0308x elapsed=0:04:18.30    \nframe=  480 fps=1.9 q=43.0 size=    1792KiB time=00:00:07.98 bitrate=1838.8kbits/s speed=0.0308x elapsed=0:04:18.83    \nframe=  481 fps=1.9 q=44.0 size=    1792KiB time=00:00:08.00 bitrate=1835.0kbits/s speed=0.0308x elapsed=0:04:19.36    \nframe=  483 fps=1.9 q=43.0 size=    1792KiB time=00:00:08.03 bitrate=1827.4kbits/s speed=0.0309x elapsed=0:04:19.92    \nframe=  486 fps=1.9 q=40.0 size=    1792KiB time=00:00:08.08 bitrate=1816.1kbits/s speed=0.031x elapsed=0:04:20.46    \nframe=  488 fps=1.9 q=42.0 size=    1792KiB time=00:00:08.11 bitrate=1808.6kbits/s speed=0.0311x elapsed=0:04:20.97    \nframe=  490 fps=1.9 q=36.0 size=    1792KiB time=00:00:08.15 bitrate=1801.2kbits/s speed=0.0312x elapsed=0:04:21.51    \nframe=  491 fps=1.9 q=43.0 size=    1792KiB time=00:00:08.16 bitrate=1797.6kbits/s speed=0.0312x elapsed=0:04:22.02    \nframe=  494 fps=1.9 q=40.0 size=    1792KiB time=00:00:08.21 bitrate=1786.6kbits/s speed=0.0313x elapsed=0:04:22.54    \nframe=  495 fps=1.9 q=43.0 size=    1792KiB time=00:00:08.23 bitrate=1783.0kbits/s speed=0.0313x elapsed=0:04:23.08    \nframe=  496 fps=1.9 q=42.0 size=    1792KiB time=00:00:08.25 bitrate=1779.4kbits/s speed=0.0313x elapsed=0:04:23.62    \nframe=  498 fps=1.9 q=27.0 size=    1792KiB time=00:00:08.26 bitrate=1775.8kbits/s speed=0.0313x elapsed=0:04:24.16    \nframe=  500 fps=1.9 q=42.0 size=    1792KiB time=00:00:08.31 bitrate=1765.1kbits/s speed=0.0314x elapsed=0:04:24.71    \nframe=  502 fps=1.9 q=40.0 size=    1792KiB time=00:00:08.35 bitrate=1758.1kbits/s speed=0.0315x elapsed=0:04:25.24    \nframe=  503 fps=1.9 q=43.0 size=    1792KiB time=00:00:08.36 bitrate=1754.6kbits/s speed=0.0315x elapsed=0:04:25.79    \nframe=  506 fps=1.9 q=36.0 size=    1792KiB time=00:00:08.41 bitrate=1744.2kbits/s speed=0.0316x elapsed=0:04:26.41    \nframe=  506 fps=1.9 q=36.0 size=    1792KiB time=00:00:08.41 bitrate=1744.2kbits/s speed=0.0315x elapsed=0:04:27.03    \nframe=  510 fps=1.9 q=40.0 size=    1792KiB time=00:00:08.48 bitrate=1730.5kbits/s speed=0.0317x elapsed=0:04:27.54    \nframe=  510 fps=1.9 q=40.0 size=    1792KiB time=00:00:08.48 bitrate=1730.5kbits/s speed=0.0316x elapsed=0:04:28.05    \nframe=  514 fps=1.9 q=27.0 size=    1792KiB time=00:00:08.55 bitrate=1717.0kbits/s speed=0.0318x elapsed=0:04:28.58    \nframe=  514 fps=1.9 q=27.0 size=    1792KiB time=00:00:08.55 bitrate=1717.0kbits/s speed=0.0318x elapsed=0:04:29.11    \nframe=  514 fps=1.9 q=27.0 size=    1792KiB time=00:00:08.55 bitrate=1717.0kbits/s speed=0.0317x elapsed=0:04:29.61    \nframe=  514 fps=1.9 q=27.0 size=    1792KiB time=00:00:08.55 bitrate=1717.0kbits/s speed=0.0316x elapsed=0:04:30.14    \nframe=  514 fps=1.9 q=27.0 size=    1792KiB time=00:00:08.55 bitrate=1717.0kbits/s speed=0.0316x elapsed=0:04:30.65    \nframe=  514 fps=1.9 q=27.0 size=    1792KiB time=00:00:08.55 bitrate=1717.0kbits/s speed=0.0315x elapsed=0:04:31.16    \nframe=  514 fps=1.9 q=27.0 size=    1792KiB time=00:00:08.55 bitrate=1717.0kbits/s speed=0.0315x elapsed=0:04:31.68    \nframe=  514 fps=1.9 q=27.0 size=    1792KiB time=00:00:08.55 bitrate=1717.0kbits/s speed=0.0314x elapsed=0:04:32.20    \nframe=  514 fps=1.9 q=27.0 size=    1792KiB time=00:00:08.55 bitrate=1717.0kbits/s speed=0.0314x elapsed=0:04:32.72    \nframe=  514 fps=1.9 q=27.0 size=    1792KiB time=00:00:08.55 bitrate=1717.0kbits/s speed=0.0313x elapsed=0:04:33.23    \nframe=  514 fps=1.9 q=27.0 size=    1792KiB time=00:00:08.55 bitrate=1717.0kbits/s speed=0.0312x elapsed=0:04:33.74    \nframe=  514 fps=1.9 q=27.0 size=    1792KiB time=00:00:08.55 bitrate=1717.0kbits/s speed=0.0312x elapsed=0:04:34.27    \nframe=  518 fps=1.9 q=41.0 size=    1792KiB time=00:00:08.61 bitrate=1703.7kbits/s speed=0.0314x elapsed=0:04:34.77    \nframe=  518 fps=1.9 q=41.0 size=    1792KiB time=00:00:08.61 bitrate=1703.7kbits/s speed=0.0313x elapsed=0:04:35.28    \nframe=  520 fps=1.9 q=43.0 size=    1792KiB time=00:00:08.65 bitrate=1697.1kbits/s speed=0.0314x elapsed=0:04:35.80    \nframe=  522 fps=1.9 q=34.0 size=    1792KiB time=00:00:08.68 bitrate=1690.6kbits/s speed=0.0314x elapsed=0:04:36.32    \nframe=  522 fps=1.9 q=34.0 size=    1792KiB time=00:00:08.68 bitrate=1690.6kbits/s speed=0.0314x elapsed=0:04:36.83    \nframe=  524 fps=1.9 q=42.0 size=    1792KiB time=00:00:08.68 bitrate=1690.6kbits/s speed=0.0313x elapsed=0:04:37.35    \nframe=  526 fps=1.9 q=40.0 size=    1792KiB time=00:00:08.75 bitrate=1677.7kbits/s speed=0.0315x elapsed=0:04:38.09    \nframe=  530 fps=1.9 q=24.0 size=    1792KiB time=00:00:08.81 bitrate=1665.0kbits/s speed=0.0316x elapsed=0:04:38.91    \nframe=  530 fps=1.9 q=24.0 size=    1792KiB time=00:00:08.81 bitrate=1665.0kbits/s speed=0.0315x elapsed=0:04:39.76    \nframe=  530 fps=1.9 q=24.0 size=    1792KiB time=00:00:08.81 bitrate=1665.0kbits/s speed=0.0314x elapsed=0:04:40.44    \nframe=  534 fps=1.9 q=40.0 size=    1792KiB time=00:00:08.88 bitrate=1652.5kbits/s speed=0.0316x elapsed=0:04:40.96    \nframe=  534 fps=1.9 q=40.0 size=    1792KiB time=00:00:08.88 bitrate=1652.5kbits/s speed=0.0316x elapsed=0:04:41.48    \nframe=  538 fps=1.9 q=36.0 size=    1792KiB time=00:00:08.95 bitrate=1640.2kbits/s speed=0.0317x elapsed=0:04:42.00    \nframe=  538 fps=1.9 q=36.0 size=    1792KiB time=00:00:08.95 bitrate=1640.2kbits/s speed=0.0317x elapsed=0:04:42.50    \nframe=  538 fps=1.9 q=36.0 size=    1792KiB time=00:00:08.95 bitrate=1640.2kbits/s speed=0.0316x elapsed=0:04:43.03    \nframe=  538 fps=1.9 q=36.0 size=    1792KiB time=00:00:08.95 bitrate=1640.2kbits/s speed=0.0316x elapsed=0:04:43.55    \nframe=  542 fps=1.9 q=40.0 size=    1792KiB time=00:00:09.01 bitrate=1628.1kbits/s speed=0.0317x elapsed=0:04:44.06    \nframe=  542 fps=1.9 q=40.0 size=    1792KiB time=00:00:09.01 bitrate=1628.1kbits/s speed=0.0317x elapsed=0:04:44.58    \nframe=  544 fps=1.9 q=42.0 size=    1792KiB time=00:00:09.05 bitrate=1622.1kbits/s speed=0.0317x elapsed=0:04:45.09    \nframe=  546 fps=1.9 q=27.0 size=    1792KiB time=00:00:09.08 bitrate=1616.2kbits/s speed=0.0318x elapsed=0:04:45.61    \nframe=  546 fps=1.9 q=27.0 size=    1792KiB time=00:00:09.08 bitrate=1616.2kbits/s speed=0.0317x elapsed=0:04:46.12    \nframe=  546 fps=1.9 q=27.0 size=    1792KiB time=00:00:09.08 bitrate=1616.2kbits/s speed=0.0317x elapsed=0:04:46.64    \nframe=  550 fps=1.9 q=40.0 size=    1792KiB time=00:00:09.15 bitrate=1604.4kbits/s speed=0.0319x elapsed=0:04:47.14    \nframe=  550 fps=1.9 q=40.0 size=    1792KiB time=00:00:09.15 bitrate=1604.4kbits/s speed=0.0318x elapsed=0:04:47.67    \nframe=  554 fps=1.9 q=35.0 size=    1792KiB time=00:00:09.21 bitrate=1592.8kbits/s speed=0.032x elapsed=0:04:48.18    \nframe=  554 fps=1.9 q=35.0 size=    1792KiB time=00:00:09.21 bitrate=1592.8kbits/s speed=0.0319x elapsed=0:04:48.70    \nframe=  554 fps=1.9 q=35.0 size=    1792KiB time=00:00:09.21 bitrate=1592.8kbits/s speed=0.0319x elapsed=0:04:49.22    \nframe=  556 fps=1.9 q=42.0 size=    1792KiB time=00:00:09.25 bitrate=1587.0kbits/s speed=0.0319x elapsed=0:04:49.73    \nframe=  558 fps=1.9 q=40.0 size=    1792KiB time=00:00:09.28 bitrate=1581.3kbits/s speed=0.032x elapsed=0:04:50.25    \nframe=  560 fps=1.9 q=36.0 size=    1792KiB time=00:00:09.31 bitrate=1575.7kbits/s speed=0.032x elapsed=0:04:50.76    \nframe=  562 fps=1.9 q=26.0 size=    1792KiB time=00:00:09.35 bitrate=1570.1kbits/s speed=0.0321x elapsed=0:04:51.27    \nframe=  562 fps=1.9 q=26.0 size=    1792KiB time=00:00:09.35 bitrate=1570.1kbits/s speed=0.032x elapsed=0:04:51.79    \nframe=  564 fps=1.9 q=42.0 size=    1792KiB time=00:00:09.38 bitrate=1564.5kbits/s speed=0.0321x elapsed=0:04:52.31    \nframe=  566 fps=1.9 q=40.0 size=    1792KiB time=00:00:09.41 bitrate=1558.9kbits/s speed=0.0322x elapsed=0:04:52.82    \nframe=  570 fps=1.9 q=36.0 size=    1792KiB time=00:00:09.48 bitrate=1548.0kbits/s speed=0.0323x elapsed=0:04:53.33    \nframe=  570 fps=1.9 q=36.0 size=    1792KiB time=00:00:09.48 bitrate=1548.0kbits/s speed=0.0323x elapsed=0:04:53.85    \nframe=  570 fps=1.9 q=36.0 size=    1792KiB time=00:00:09.48 bitrate=1548.0kbits/s speed=0.0322x elapsed=0:04:54.36    \nframe=  572 fps=1.9 q=42.0 size=    1792KiB time=00:00:09.51 bitrate=1542.6kbits/s speed=0.0323x elapsed=0:04:54.88    \nframe=  574 fps=1.9 q=40.0 size=    1792KiB time=00:00:09.55 bitrate=1537.2kbits/s speed=0.0323x elapsed=0:04:55.39    \nframe=  574 fps=1.9 q=40.0 size=    1792KiB time=00:00:09.55 bitrate=1537.2kbits/s speed=0.0323x elapsed=0:04:55.91    \nframe=  576 fps=1.9 q=42.0 size=    1792KiB time=00:00:09.58 bitrate=1531.8kbits/s speed=0.0323x elapsed=0:04:56.43    \nframe=  578 fps=1.9 q=27.0 size=    1792KiB time=00:00:09.61 bitrate=1526.5kbits/s speed=0.0324x elapsed=0:04:56.95    \nframe=  578 fps=1.9 q=27.0 size=    1792KiB time=00:00:09.61 bitrate=1526.5kbits/s speed=0.0323x elapsed=0:04:57.46    \nframe=  578 fps=1.9 q=27.0 size=    1792KiB time=00:00:09.61 bitrate=1526.5kbits/s speed=0.0323x elapsed=0:04:57.98    \nframe=  578 fps=1.9 q=27.0 size=    1792KiB time=00:00:09.61 bitrate=1526.5kbits/s speed=0.0322x elapsed=0:04:58.50    \nframe=  582 fps=1.9 q=40.0 size=    1792KiB time=00:00:09.68 bitrate=1516.0kbits/s speed=0.0324x elapsed=0:04:59.01    \nframe=  582 fps=1.9 q=40.0 size=    1792KiB time=00:00:09.68 bitrate=1516.0kbits/s speed=0.0323x elapsed=0:04:59.52    \nframe=  586 fps=2.0 q=36.0 size=    1792KiB time=00:00:09.75 bitrate=1505.6kbits/s speed=0.0325x elapsed=0:05:00.05    \nframe=  586 fps=1.9 q=36.0 size=    1792KiB time=00:00:09.75 bitrate=1505.6kbits/s speed=0.0324x elapsed=0:05:00.57    \nframe=  586 fps=1.9 q=36.0 size=    1792KiB time=00:00:09.75 bitrate=1505.6kbits/s speed=0.0324x elapsed=0:05:01.09    \nframe=  590 fps=2.0 q=44.0 size=    1792KiB time=00:00:09.81 bitrate=1495.4kbits/s speed=0.0325x elapsed=0:05:01.61    \nframe=  592 fps=2.0 q=44.0 size=    1792KiB time=00:00:09.85 bitrate=1490.4kbits/s speed=0.0326x elapsed=0:05:02.11    \n[out#0/matroska @ 00000266d7628ec0] video:2961KiB audio:0KiB subtitle:0KiB other streams:0KiB global headers:0KiB muxing overhead: 0.112023%\nframe=  600 fps=2.0 q=43.0 Lsize=    2965KiB time=00:00:09.98 bitrate=2432.7kbits/s speed=0.033x elapsed=0:05:02.35    \n",
  "seconds": 304.6746265888214,
  "probe_out": {}
}